:version 1.10
:name ASF
:units
  mass 1
  length 1
  angle deg
:documentation
  ASF file generated by Kaydara
:root
  axis xyz
  order  tx ty tz rx ry rz
  position 0 0 0
  orientation 0 0 0
:bonedata
  begin
    id 1
    name RightUpLegDummy
    direction -0.718183 -0.695806 0.00816078
    length 4.904
    axis 0 0 0 xyz
  end
  begin
    id 2
    name RightUpLeg
    direction 3.53373e-006 -0.995788 0.0916898
    length 17.4976
    axis -3.49089 -0.000906625 0.000286804 xyz
    dof rx ry rz
  end
  begin
    id 3
    name RightLeg
    direction 0.00371092 -0.995096 -0.0988419
    length 16.5821
    axis 3.68512 0.0193738 -0.131023 xyz
    dof rx ry rz
  end
  begin
    id 4
    name RightFoot
    direction 0.00079151 -0.46099 0.887405
    length 3.77069
    axis 4.81691e-005 -0.120479 -0.188788 xyz
    dof rx ry rz
  end
  begin
    id 5
    name RightToes
    direction 0 0 0
    length 0
    axis 0 0 0 xyz
    dof rx ry rz
  end
  begin
    id 6
    name SpineDummy
    direction 8.3039e-015 1 4.57515e-016
    length 4.6813
    axis 0 0 0 xyz
  end
  begin
    id 7
    name Spine
    direction -3.15643e-008 0.999988 0.00495137
    length 10.1015
    axis -0.001389 0.000121418 2.40972e-006 xyz
    dof rx ry rz
  end
  begin
    id 8
    name Spine1
    direction 0 0 0
    length 0
    axis -0.001389 0.000121451 1.30017e-006 xyz
    dof rx ry rz
  end
  begin
    id 9
    name HEadDummy
    direction -1.99912e-008 0.999999 0.00127422
    length 3.43865
    axis -0.001389 0.000121451 1.30017e-006 xyz
  end
  begin
    id 10
    name HEad
    direction 0 0 0
    length 0
    axis 0 0 0 xyz
    dof rx ry rz
  end
  begin
    id 11
    name LeftShoulder1Dummy
    direction 0.998891 -0.0402509 -0.0244456
    length 3.5433
    axis -0.001389 0.000121451 1.30017e-006 xyz
  end
  begin
    id 12
    name LeftShoulder1
    direction 0.99951 -0.000327763 0.0313091
    length 4.05031
    axis -0.001389 0.000121451 1.30017e-006 xyz
    dof rx ry rz
  end
  begin
    id 13
    name LeftArm
    direction 0.998561 -0.00100056 -0.0536182
    length 10.3537
    axis -23.1894 0.134784 0.967509 xyz
    dof rx ry rz
  end
  begin
    id 14
    name LeftForeArm
    direction 0.998903 0.00866432 0.046012
    length 8.70632
    axis -9.91835 -0.06569 -0.177794 xyz
    dof rx ry rz
  end
  begin
    id 15
    name LeftHand
    direction 0 0 0
    length 0
    axis 0 0 0 xyz
    dof rx ry rz
  end
  begin
    id 16
    name RightShoulderDummy
    direction -0.998891 -0.0402509 -0.0244414
    length 3.5433
    axis -0.001389 0.000121451 1.30017e-006 xyz
  end
  begin
    id 17
    name RightShoulder
    direction -0.99951 -0.000327807 0.0313133
    length 4.05031
    axis 0.215806 0.000203643 -0.0068026 xyz
    dof rx ry rz
  end
  begin
    id 18
    name RightArm
    direction -0.998573 -0.000999564 -0.053403
    length 10.3947
    axis -23.2009 -0.134239 -0.964101 xyz
    dof rx ry rz
  end
  begin
    id 19
    name RightForeArm
    direction -0.998898 0.00868028 0.0461306
    length 8.68355
    axis -9.92322 0.0658061 0.178868 xyz
    dof rx ry rz
  end
  begin
    id 20
    name RightHand
    direction 0 0 0
    length 0
    axis 0 0 0 xyz
    dof rx ry rz
  end
  begin
    id 21
    name LeftUpLegDummy
    direction 0.718183 -0.695806 0.00816078
    length 4.904
    axis 0 0 0 xyz
  end
  begin
    id 22
    name LeftUpLeg
    direction -6.81752e-006 -0.995793 0.0916337
    length 17.4976
    axis -3.48766 0.00143442 -0.000524262 xyz
    dof rx ry rz
  end
  begin
    id 23
    name LeftLeg
    direction -0.00601358 -0.995091 -0.0987824
    length 16.5821
    axis 3.68178 -0.00654042 -0.000285133 xyz
    dof rx ry rz
  end
  begin
    id 24
    name LeftFoot
    direction -0.00417578 -0.460984 0.887399
    length 3.77069
    axis 1.87233e-006 4.66016e-005 -8.6538e-006 xyz
    dof rx ry rz
  end
  begin
    id 25
    name LeftToes
    direction 0 0 0
    length 0
    axis 0 0 0 xyz
    dof rx ry rz
  end
:hierarchy
  begin
    root RightUpLegDummy SpineDummy LeftUpLegDummy
    RightUpLegDummy RightUpLeg
    RightUpLeg RightLeg
    RightLeg RightFoot
    RightFoot RightToes
    SpineDummy Spine
    Spine Spine1
    Spine1 HEadDummy LeftShoulder1Dummy RightShoulderDummy
    HEadDummy HEad
    LeftShoulder1Dummy LeftShoulder1
    LeftShoulder1 LeftArm
    LeftArm LeftForeArm
    LeftForeArm LeftHand
    RightShoulderDummy RightShoulder
    RightShoulder RightArm
    RightArm RightForeArm
    RightForeArm RightHand
    LeftUpLegDummy LeftUpLeg
    LeftUpLeg LeftLeg
    LeftLeg LeftFoot
    LeftFoot LeftToes
  end

:SAMPLES-PER-SECOND 30
:FULLY-SPECIFIED
:DEGREES
94
root  6.73655 37.0406 19.6188 72.3955 86.3815 67.1073
RightUpLeg  -39.3058 -21.5407 -0.708452
RightLeg  54.5207 0.345488 0.150868
RightFoot  -7.67745 -0.263837 5.99229
RightToes  0.000481921 0.542163 -0.142578
Spine  39.4009 0.524781 2.51013
Spine1  -0.145247 1.21714 0.130707
HEad  -21.9429 2.70843 -1.51068
LeftShoulder1  8.86536 -14.703 -42.2918
LeftArm  -4.09598 -15.3697 -34.9234
LeftForeArm  178.579 -61.9268 -162.293
LeftHand  -0.25398 0.0180481 5.50724
RightShoulder  5.81343 11.4513 32.9257
RightArm  -5.43576 5.25112 39.8349
RightForeArm  164.447 61.4766 161.269
RightHand  -1.30745 3.25976 -17.7197
LeftUpLeg  -35.4003 8.6212 -7.60732
LeftLeg  41.7265 7.09897 7.12481
LeftFoot  -10.9083 0.0652484 0.155296
LeftToes  1.06245e-005 4.65868e-005 -8.65517e-006
95
root  6.81287 36.9695 19.8184 68.785 85.9334 63.7026
RightUpLeg  -40.6421 -21.3043 -3.41784
RightLeg  57.8973 4.695 7.56846
RightFoot  -4.02232 -0.949147 14.3612
RightToes  0.000481921 0.542163 -0.142578
Spine  39.5601 0.343548 2.01912
Spine1  -0.317381 1.21977 -0.723327
HEad  -21.9562 2.825 -2.09943
LeftShoulder1  8.89195 -14.6901 -42.4596
LeftArm  -4.56916 -15.1433 -34.2761
LeftForeArm  178.276 -61.8543 -162.317
LeftHand  -0.25398 0.0180481 5.50724
RightShoulder  5.83663 11.4929 32.9721
RightArm  -5.16614 5.24941 40.0602
RightForeArm  165.007 61.5289 161.284
RightHand  -1.30831 3.35007 -17.5572
LeftUpLeg  -35.215 9.27856 -7.67791
LeftLeg  42.0804 6.91324 7.03881
LeftFoot  -11.293 0.0674395 0.706381
LeftToes  1.06245e-005 4.65868e-005 -8.65517e-006
96
root  6.91088 36.8914 20.0726 66.9992 85.8162 62.1839
RightUpLeg  -40.848 -19.8868 -6.534
RightLeg  59.7858 7.83272 13.7444
RightFoot  -2.55026 -1.60963 20.7106
RightToes  0.000481921 0.542163 -0.142578
Spine  39.7619 0.193224 1.75457
Spine1  -0.52621 1.17668 -1.13869
HEad  -22.0845 3.04642 -2.60186
LeftShoulder1  8.90321 -14.6822 -42.5372
LeftArm  -4.79834 -14.7827 -34.1053
LeftForeArm  178.439 -61.8392 -162.343
LeftHand  -0.25398 0.0180481 5.50724
RightShoulder  5.85476 11.4979 33.0797
RightArm  -4.98557 5.29171 39.8778
RightForeArm  165.27 61.4095 161.397
RightHand  -1.31771 3.49015 -17.4143
LeftUpLeg  -35.1022 8.69912 -7.03583
LeftLeg  42.9135 7.29807 7.61378
LeftFoot  -11.5203 0.0700613 0.573562
LeftToes  1.06245e-005 4.65868e-005 -8.65517e-006
97
root  7.00021 36.9328 20.383 63.098 85.9253 58.4833
RightUpLeg  -40.2607 -17.803 -9.06286
RightLeg  59.2746 7.37345 12.7369
RightFoot  -3.92438 -1.35344 20.0774
RightToes  0.000481921 0.542163 -0.142578
Spine  39.8736 0.197414 1.81167
Spine1  -0.54674 1.19726 -1.086
HEad  -22.2918 3.3423 -2.85137
LeftShoulder1  8.90893 -14.6905 -42.5499
LeftArm  -4.74827 -14.5834 -34.1918
LeftForeArm  178.609 -61.9021 -162.314
LeftHand  -0.25398 0.0180481 5.50724
RightShoulder  5.84619 11.4632 33.1131
RightArm  -5.00221 5.32095 39.6737
RightForeArm  165.199 61.3093 161.463
RightHand  -1.31555 3.48356 -17.3992
LeftUpLeg  -34.7205 8.05545 -5.97766
LeftLeg  43.0736 7.65926 8.00537
LeftFoot  -11.355 0.0683101 -0.321243
LeftToes  1.06245e-005 4.65868e-005 -8.65517e-006
98
root  7.06386 37.1029 20.714 56.1348 86.0894 51.541
RightUpLeg  -39.1601 -15.6709 -10.721
RightLeg  55.9712 3.01704 4.50124
RightFoot  -6.27986 -0.665876 13.9645
RightToes  0.000481921 0.542163 -0.142578
Spine  39.977 0.182589 2.33379
Spine1  -0.489163 1.26025 -0.940324
HEad  -22.4919 3.59477 -2.92448
LeftShoulder1  8.90821 -14.6923 -42.5369
LeftArm  -4.56951 -14.4263 -34.2202
LeftForeArm  178.703 -61.8794 -162.339
LeftHand  -0.25398 0.0180481 5.50724
RightShoulder  5.82358 11.422 33.0697
RightArm  -5.1077 5.23169 39.7369
RightForeArm  165.081 61.343 161.427
RightHand  -1.31121 3.39654 -17.5063
LeftUpLeg  -34.0199 7.78707 -4.84637
LeftLeg  42.1679 8.09991 8.17869
LeftFoot  -10.9167 0.0680817 -0.750949
LeftToes  1.06245e-005 4.65868e-005 -8.65517e-006
99
root  7.12871 37.2407 21.1064 52.1089 86.2342 47.4735
RightUpLeg  -37.2473 -13.7543 -11.9764
RightLeg  50.539 -2.57548 -3.7218
RightFoot  -7.80187 -0.297815 8.09951
RightToes  0.000481921 0.542163 -0.142578
Spine  40.0205 0.0927349 2.77424
Spine1  -0.604702 1.26441 -0.92103
HEad  -22.5653 3.75157 -3.00423
LeftShoulder1  8.89169 -14.6764 -42.4926
LeftArm  -4.393 -14.1065 -34.1958
LeftForeArm  178.876 -61.7311 -162.46
LeftHand  -0.25398 0.0180481 5.50724
RightShoulder  5.8084 11.3956 33.0371
RightArm  -5.17539 5.00867 39.9385
RightForeArm  165.101 61.3817 161.401
RightHand  -1.32207 3.41311 -17.6153
LeftUpLeg  -33.4276 7.54372 -3.76263
LeftLeg  41.3207 8.46073 8.27911
LeftFoot  -10.51 0.0697717 -0.903434
LeftToes  1.06245e-005 4.65868e-005 -8.65517e-006
100
root  7.22658 37.2727 21.604 52.9569 86.5259 48.3049
RightUpLeg  -34.5655 -12.3705 -12.8606
RightLeg  44.4186 -5.50086 -6.13177
RightFoot  -8.47568 -0.226203 6.80154
RightToes  0.000481921 0.542163 -0.142578
Spine  39.8981 0.042938 2.94607
Spine1  -0.743536 1.19741 -0.693141
HEad  -22.426 3.8308 -3.15944
LeftShoulder1  8.86298 -14.651 -42.4093
LeftArm  -4.25743 -13.7308 -34.2789
LeftForeArm  179.082 -61.6114 -162.563
LeftHand  -0.25398 0.0180481 5.50724
RightShoulder  5.79704 11.3713 33.0247
RightArm  -5.19986 4.71999 40.0595
RightForeArm  165.201 61.2581 161.5
RightHand  -1.33904 3.51437 -17.6418
LeftUpLeg  -33.194 7.2312 -2.55269
LeftLeg  41.2369 8.32399 8.12939
LeftFoot  -10.3194 0.0777019 -1.78455
LeftToes  1.06245e-005 4.65868e-005 -8.65517e-006
101
root  7.33715 37.2376 22.1941 55.8002 86.846 51.1504
RightUpLeg  -32.5856 -12.1642 -12.7646
RightLeg  40.3568 -5.02965 -4.84975
RightFoot  -8.51772 -0.26042 8.17611
RightToes  0.000481921 0.542163 -0.142578
Spine  39.6142 0.0997078 2.92324
Spine1  -0.698128 1.14646 -0.305601
HEad  -22.1916 3.88004 -3.31426
LeftShoulder1  8.83236 -14.6274 -42.3116
LeftArm  -4.25633 -13.5408 -34.4018
LeftForeArm  179.157 -61.5552 -162.609
LeftHand  -0.25398 0.0180481 5.50724
RightShoulder  5.77831 11.3338 32.9971
RightArm  -5.17591 4.54647 40.1328
RightForeArm  165.251 61.0416 161.661
RightHand  -1.34001 3.53261 -17.6199
LeftUpLeg  -33.2005 6.92215 -1.28095
LeftLeg  41.6108 8.04625 7.97638
LeftFoot  -10.2701 0.0891206 -2.94341
LeftToes  1.06245e-005 4.65868e-005 -8.65517e-006
102
root  7.41278 37.2175 22.8085 53.6201 87.0553 49.0261
RightUpLeg  -32.292 -13.178 -11.4278
RightLeg  39.7939 -3.87847 -3.73407
RightFoot  -8.02023 -0.282146 7.871
RightToes  0.000481921 0.542163 -0.142578
Spine  39.4344 0.138855 3.07781
Spine1  -0.522853 1.1752 -0.173412
HEad  -22.1471 3.995 -3.40111
LeftShoulder1  8.8006 -14.5895 -42.2433
LeftArm  -4.50877 -13.5503 -34.3857
LeftForeArm  179.121 -61.4373 -162.687
LeftHand  -0.25398 0.0180481 5.50724
RightShoulder  5.76414 11.3035 32.9811
RightArm  -5.03315 4.73098 40.2772
RightForeArm  165.149 60.9877 161.689
RightHand  -1.32729 3.44231 -17.6273
LeftUpLeg  -33.1307 6.43836 0.116321
LeftLeg  41.898 8.39085 8.37302
LeftFoot  -10.0412 0.0989641 -3.42412
LeftToes  1.06245e-005 4.65868e-005 -8.65517e-006
103
root  7.45618 37.2321 23.409 44.3289 87.1502 39.9227
RightUpLeg  -32.7178 -14.2183 -9.55338
RightLeg  40.8492 -3.60466 -3.62524
RightFoot  -7.90376 -0.223764 5.61991
RightToes  0.000481921 0.542163 -0.142578
Spine  39.5228 0.10454 3.45736
Spine1  -0.393594 1.2518 -0.315823
HEad  -22.3588 4.26455 -3.43298
LeftShoulder1  8.76584 -14.5236 -42.2295
LeftArm  -4.9147 -13.5744 -34.3192
LeftForeArm  179.126 -61.2983 -162.783
LeftHand  -0.25398 0.0180481 5.50724
RightShoulder  5.77511 11.3169 33.0199
RightArm  -4.76581 5.27253 40.4339
RightForeArm  164.874 61.231 161.488
RightHand  -1.31702 3.3505 -17.6693
LeftUpLeg  -32.777 5.52896 1.80226
LeftLeg  42.0168 9.15325 9.11506
LeftFoot  -9.62282 0.11591 -3.86824
LeftToes  1.06245e-005 4.65868e-005 -8.65517e-006
104
root  7.50987 37.2524 23.9917 34.0781 87.2204 29.9026
RightUpLeg  -32.7189 -14.3904 -7.97953
RightLeg  41.3949 -3.58722 -3.67679
RightFoot  -8.43959 -0.161118 4.11148
RightToes  0.000481921 0.542163 -0.142578
Spine  39.6066 0.081702 3.80897
Spine1  -0.395685 1.27433 -0.280171
HEad  -22.5269 4.61413 -3.41706
LeftShoulder1  8.73334 -14.4537 -42.2374
LeftArm  -5.17556 -13.5068 -34.4705
LeftForeArm  179.238 -61.3382 -162.766
LeftHand  -0.25398 0.0180481 5.50724
RightShoulder  5.80037 11.3577 33.0825
RightArm  -4.47611 5.79671 40.5015
RightForeArm  164.564 61.615 161.178
RightHand  -1.31039 3.2964 -17.687
LeftUpLeg  -32.2901 4.2651 3.59389
LeftLeg  42.0922 9.78744 9.72476
LeftFoot  -9.25316 0.147366 -4.99465
LeftToes  1.06245e-005 4.65868e-005 -8.65517e-006
105
root  7.58396 37.2765 24.5496 30.8236 87.437 26.6693
RightUpLeg  -32.4866 -14.1656 -6.87443
RightLeg  41.4066 -3.58939 -3.68194
RightFoot  -9.03824 -0.139237 3.87902
RightToes  0.000481921 0.542163 -0.142578
Spine  39.4073 0.0510181 3.96759
Spine1  -0.493033 1.15389 -0.00946738
HEad  -22.4402 4.82637 -3.32191
LeftShoulder1  8.70523 -14.4173 -42.1834
LeftArm  -5.14996 -13.4043 -34.8831
LeftForeArm  179.408 -61.5216 -162.655
LeftHand  -0.25398 0.0180481 5.50724
RightShoulder  5.79938 11.3472 33.1034
RightArm  -4.23182 5.97007 40.551
RightForeArm  164.375 61.8425 160.99
RightHand  -1.3052 3.26492 -17.68
LeftUpLeg  -32.2142 3.03926 4.87921
LeftLeg  42.2732 10.7405 10.6662
LeftFoot  -8.46297 0.179659 -5.18773
LeftToes  1.06245e-005 4.65868e-005 -8.65517e-006
106
root  7.6411 37.3273 25.0529 36.7791 87.8552 32.4044
RightUpLeg  -32.5169 -14.3883 -5.96034
RightLeg  41.5139 -3.87036 -3.96126
RightFoot  -9.40164 -0.123511 3.51565
RightToes  0.000481921 0.542163 -0.142578
Spine  39.0742 -0.123755 4.05899
Spine1  -0.684357 0.893138 0.105482
HEad  -22.3358 4.82027 -3.18835
LeftShoulder1  8.67296 -14.4143 -42.0235
LeftArm  -4.96785 -13.3726 -35.3832
LeftForeArm  179.58 -61.5665 -162.64
LeftHand  -0.25398 0.0180481 5.50724
RightShoulder  5.75441 11.2519 33.0514
RightArm  -4.02889 5.89085 40.6626
RightForeArm  164.243 61.7485 161.047
RightHand  -1.31325 3.29053 -17.7357
LeftUpLeg  -32.9738 2.29072 5.38278
LeftLeg  42.8981 12.2236 12.281
LeftFoot  -6.39759 0.15324 -2.83482
LeftToes  1.06245e-005 4.65868e-005 -8.65517e-006
